<?xml version="1.0" standalone="no"?>
<!DOCTYPE svg PUBLIC "-//W3C//DTD SVG 20010904//EN"
 "http://www.w3.org/TR/2001/REC-SVG-20010904/DTD/svg10.dtd">
<svg version="1.0" xmlns="http://www.w3.org/2000/svg"
 width="531.000000pt" height="531.000000pt" viewBox="0 0 531.000000 531.000000"
 preserveAspectRatio="xMidYMid meet">

<g transform="translate(0.000000,531.000000) scale(0.100000,-0.100000)"
fill="#000000" stroke="none">
<path d="M1145 3346 c-89 -21 -230 -85 -326 -149 -126 -85 -121 -79 -114 -124
21 -122 86 -255 169 -342 69 -73 168 -141 203 -141 35 0 117 45 157 86 65 67
80 113 86 259 4 93 10 139 22 161 23 42 87 98 149 130 l52 26 -45 29 c-101 66
-239 91 -353 65z"/>
<path d="M4785 3041 c-42 -18 -54 -46 -76 -173 l-22 -126 -31 33 c-75 79 -214
70 -314 -21 -122 -109 -176 -340 -110 -472 33 -67 87 -94 194 -100 175 -9 315
78 354 220 5 18 32 161 60 318 27 157 52 295 55 308 5 20 2 22 -42 21 -27 0
-57 -4 -68 -8z m-173 -380 c32 -29 33 -32 33 -109 -1 -68 -5 -89 -31 -139 -52
-103 -154 -132 -218 -62 -27 31 -28 35 -24 113 5 89 26 143 75 187 34 32 47
37 95 38 28 1 46 -6 70 -28z"/>
<path d="M1669 2943 c-78 -73 -141 -157 -184 -243 -32 -63 -65 -155 -65 -180
0 -12 29 -31 95 -61 52 -24 95 -47 95 -50 0 -4 -24 -10 -52 -14 -198 -26 -440
-122 -539 -213 l-54 -49 110 -36 c192 -61 343 -83 469 -67 132 17 233 78 290
175 97 165 71 499 -60 756 -13 27 -26 49 -29 49 -3 0 -37 -30 -76 -67z"/>
<path d="M4096 3000 c-2 -3 -6 -23 -10 -45 -4 -22 -9 -48 -12 -57 -5 -16 3
-18 80 -18 l86 0 0 43 c0 23 -4 49 -10 57 -8 14 -128 32 -134 20z"/>
<path d="M3780 2998 c0 -2 -27 -156 -60 -343 -33 -187 -60 -358 -60 -381 0
-65 21 -78 138 -78 l97 -1 11 55 10 55 -34 5 c-57 8 -59 20 -28 196 38 217 34
204 65 204 30 0 64 30 80 71 13 34 7 39 -46 39 -43 0 -44 1 -39 28 18 89 18
103 2 127 -15 22 -24 25 -76 25 -33 0 -60 -1 -60 -2z"/>
<path d="M4931 2934 c-12 -15 -21 -34 -21 -44 0 -10 9 -29 21 -44 41 -52 129
-23 129 44 0 67 -88 96 -129 44z m109 -16 c13 -25 13 -31 0 -55 -13 -23 -23
-28 -55 -28 -32 0 -42 5 -51 24 -13 26 -3 69 19 83 25 17 71 4 87 -24z"/>
<path d="M4961 2888 c1 -24 3 -35 6 -25 5 21 22 22 29 2 4 -8 11 -15 16 -15 6
0 5 7 -3 16 -10 13 -10 17 1 24 20 12 4 40 -25 40 -23 0 -25 -3 -24 -42z m47
20 c-3 -7 -11 -13 -18 -13 -7 0 -15 6 -17 13 -3 7 4 12 17 12 13 0 20 -5 18
-12z"/>
<path d="M474 2887 c-144 -183 -176 -273 -130 -372 45 -97 142 -174 344 -271
62 -30 114 -54 116 -54 2 0 7 16 11 36 9 49 47 134 85 189 l31 45 -49 0 c-115
0 -264 122 -317 259 -16 42 -29 100 -32 146 -3 41 -9 75 -12 75 -3 -1 -24 -24
-47 -53z"/>
<path d="M2313 2809 c-84 -26 -141 -72 -176 -140 -23 -45 -39 -114 -83 -360
-29 -167 -56 -314 -59 -326 -5 -22 -2 -23 50 -23 46 0 60 5 85 28 28 25 33 38
52 153 l22 126 30 -32 c75 -79 214 -70 315 21 64 57 116 161 132 260 33 204
-49 315 -230 313 -46 0 -100 -8 -138 -20z m175 -142 c31 -31 43 -87 32 -151
-21 -126 -80 -196 -168 -196 -35 0 -49 6 -72 29 -16 16 -32 41 -36 57 -11 43
13 162 42 212 46 79 147 103 202 49z"/>
<path d="M3297 2816 c-129 -46 -205 -159 -230 -338 -26 -194 56 -294 243 -293
160 1 279 103 326 280 17 61 18 180 3 226 -18 53 -58 99 -103 120 -50 23 -181
25 -239 5z m142 -131 c56 -28 69 -135 31 -238 -26 -70 -50 -100 -96 -122 -45
-21 -92 -14 -125 21 -21 23 -24 34 -23 107 1 118 41 203 109 233 39 17 70 17
104 -1z"/>
<path d="M3015 2813 c-59 -12 -124 -38 -161 -63 -52 -36 -107 -118 -128 -190
-14 -50 -66 -331 -66 -359 0 -7 26 -11 80 -11 44 0 80 3 80 6 0 33 66 357 77
383 23 48 66 71 135 71 63 0 58 -6 74 95 3 22 8 48 11 58 4 14 -2 17 -39 16
-24 -1 -52 -3 -63 -6z"/>
<path d="M4060 2813 c0 -8 -98 -568 -106 -601 -5 -23 -4 -23 78 -20 l83 3 47
265 c55 310 56 323 26 344 -22 16 -128 23 -128 9z"/>
<path d="M3831 2107 c0 -10 -8 -20 -17 -24 -9 -3 -12 -8 -5 -12 7 -4 7 -21 0
-50 -10 -44 1 -75 18 -56 5 4 3 10 -3 12 -18 6 6 93 25 93 11 0 12 3 5 8 -7 4
-14 16 -17 27 -4 17 -5 17 -6 2z"/>
<path d="M3567 2070 c-24 -20 -19 -32 24 -54 25 -13 27 -27 5 -41 -10 -6 -21
-4 -35 9 -22 20 -30 9 -9 -12 28 -28 88 -2 74 33 -3 8 -17 20 -31 25 -33 13
-33 40 0 40 14 0 25 -4 25 -10 0 -5 4 -10 10 -10 5 0 7 6 4 14 -9 23 -42 26
-67 6z"/>
<path d="M4317 2078 c-10 -5 -21 -7 -26 -4 -8 6 -35 -104 -27 -112 3 -2 10 16
16 39 14 53 26 69 51 69 21 0 24 -18 10 -68 -15 -51 2 -37 19 16 12 37 20 48
39 50 23 4 23 2 17 -55 -4 -40 -3 -51 4 -36 5 12 10 39 12 60 3 33 0 38 -20
41 -13 2 -30 -2 -38 -8 -8 -8 -14 -8 -14 -2 0 15 -24 21 -43 10z"/>
<path d="M3062 2067 c-13 -15 -6 -27 31 -50 23 -15 26 -21 16 -33 -15 -18 -28
-18 -51 3 -20 18 -25 4 -6 -15 28 -28 88 -2 74 33 -3 8 -17 20 -31 25 -32 12
-33 40 -1 40 13 0 26 -6 29 -12 2 -7 8 -10 12 -6 13 12 -6 28 -34 28 -16 0
-33 -6 -39 -13z"/>
<path d="M3304 2065 c3 -8 8 -37 12 -64 6 -43 4 -50 -17 -65 -20 -15 -21 -17
-5 -14 19 3 112 146 102 156 -3 2 -13 -10 -23 -27 -38 -69 -40 -70 -48 -18 -4
26 -12 47 -17 47 -6 0 -8 -7 -4 -15z"/>
<path d="M4033 2072 c-6 -4 -17 -20 -23 -36 -8 -23 -7 -34 5 -52 8 -13 22 -24
31 -24 22 0 54 19 54 32 0 6 -9 3 -21 -8 -22 -20 -51 -11 -57 20 -3 13 5 16
42 16 47 0 54 8 40 44 -6 17 -50 22 -71 8z m65 -24 c3 -15 -4 -18 -37 -18 -43
0 -50 7 -29 28 18 18 62 11 66 -10z"/>
<path d="M4617 2074 c-16 -17 -5 -42 23 -54 32 -13 39 -34 15 -44 -18 -6 -45
2 -45 15 0 5 -4 9 -10 9 -16 0 1 -29 21 -35 56 -18 80 34 29 63 -16 9 -30 21
-30 25 0 15 33 20 52 8 16 -10 19 -10 16 1 -5 14 -59 23 -71 12z"/>
</g>
</svg>
